#!OML:ASF F:\VICON\USERDATA\INSTALL\rory3\rory3.ASF
:FULLY-SPECIFIED
:DEGREES
2022
root 0.289927 16.0321 -0.433726 1.97021 6.76021 -1.25008
lowerback 12.1308 1.13164 1.95199
upperback 0.0440841 1.74115 -0.566264
thorax -6.69023 0.777668 -2.00634
lowerneck -13.3553 9.15309 -3.15328
upperneck 14.7188 12.1266 5.86075
head 6.07283 6.19552 3.40716
rclavicle -2.6662e-014 -5.96354e-016
rhumerus -18.842 20.7909 -84.9198
rradius 118.759
rwrist 22.0979
rhand 27.5462 6.65836
rfingers 7.12502
rthumb 51.488 -13.7466
lclavicle -2.6662e-014 -5.96354e-016
lhumerus -12.5367 -34.7686 86.9414
lradius 117.721
lwrist 0.419193
lhand 8.52387 36.0011
lfingers 7.12502
lthumb 33.725 62.8455
rfemur -6.62264 14.7131 18.5781
rtibia 23.0595
rfoot -14.1078 -21.4439
rtoes -7.26874
lfemur -9.29947 -15.2006 -15.1582
ltibia 20.993
lfoot -10.4203 6.51718
ltoes -13.6958
2023
root 0.282096 16.0261 -0.43301 1.85299 6.99532 -1.26127
lowerback 12.3111 1.23334 1.96278
upperback 0.103439 1.87796 -0.606658
thorax -6.72045 0.843417 -2.08335
lowerneck -13.3443 9.32199 -3.04299
upperneck 14.618 12.3244 5.92477
head 6.03182 6.30395 3.41911
rclavicle 4.17696e-014 -1.70955e-014
rhumerus -18.7493 20.7147 -84.8097
rradius 118.747
rwrist 22.1458
rhand 28.0255 6.89934
rfingers 7.12502
rthumb 51.9233 -13.2518
lclavicle 4.17696e-014 -1.70955e-014
lhumerus -12.3492 -34.7772 86.7484
lradius 117.798
lwrist 0.303234
lhand 8.47637 36.1224
lfingers 7.12502
lthumb 33.6798 62.9766
rfemur -6.60829 15.0214 18.7241
rtibia 23.4154
rfoot -14.551 -21.8653
rtoes -6.84545
lfemur -9.31247 -15.28 -15.1165
ltibia 21.1324
lfoot -10.4653 6.31099
ltoes -13.5913
2024
root 0.27884 16.02 -0.433898 1.85228 7.28099 -1.0525
lowerback 12.3666 1.31854 1.80709
upperback 0.173894 1.96178 -0.717715
thorax -6.67381 0.888988 -2.12778
lowerneck -13.3831 9.46348 -2.92206
upperneck 14.5533 12.4882 5.95907
head 6.01524 6.39347 3.42275
rclavicle 4.11981e-014 1.19271e-015
rhumerus -18.701 20.6517 -84.6912
rradius 118.73
rwrist 22.2368
rhand 28.1541 7.30601
rfingers 7.12502
rthumb 52.04 -12.7758
lclavicle 4.11981e-014 1.19271e-015
lhumerus -12.0617 -34.894 86.4877
lradius 117.892
lwrist 0.290647
lhand 8.33653 36.1718
lfingers 7.12502
lthumb 33.5469 63.055
rfemur -6.73625 15.0386 18.5544
rtibia 23.8352
rfoot -14.9454 -22.0536
rtoes -6.27217
lfemur -9.39791 -15.4541 -15.3189
ltibia 21.2108
lfoot -10.4296 6.18629
ltoes -13.4973
2025
root 0.279212 16.0133 -0.436398 1.9993 7.63278 -0.621094
lowerback 12.3126 1.34841 1.45994
upperback 0.225114 1.94148 -0.858944
thorax -6.59631 0.889621 -2.07446
lowerneck -13.4337 9.62595 -2.84868
upperneck 14.5083 12.6949 5.9608
head 6.004 6.49829 3.428
rclavicle -3.37934e-015 -2.04748e-014
rhumerus -18.5911 20.7435 -84.475
rradius 118.723
rwrist 22.2124
rhand 28.0662 7.62348
rfingers 7.12502
rthumb 51.9603 -12.5057
lclavicle -3.37934e-015 -2.04748e-014
lhumerus -11.6781 -34.9216 86.1885
lradius 117.899
lwrist 0.31004
lhand 8.32318 36.0641
lfingers 7.12502
lthumb 33.5342 62.95
rfemur -6.98551 14.7239 18.0624
rtibia 24.2317
rfoot -15.1952 -22.0406
rtoes -6.13585
lfemur -9.64498 -15.6855 -15.7591
ltibia 21.3251
lfoot -10.3386 6.09843
ltoes -13.7087
2026
root 0.276179 16.0072 -0.439178 2.08679 7.96143 -0.377578
lowerback 12.3541 1.37352 1.25364
upperback 0.260023 1.94066 -0.936881
thorax -6.58661 0.894926 -2.04076
lowerneck -13.5063 9.78498 -2.80774
upperneck 14.5142 12.8928 6.03028
head 6.00607 6.60267 3.46168
rclavicle 8.00108e-015 1.13307e-014
rhumerus -18.4264 20.8353 -84.2634
rradius 118.687
rwrist 22.1754
rhand 27.9908 7.84959
rfingers 7.12502
rthumb 51.8918 -12.3201
lclavicle 8.00108e-015 1.13307e-014
lhumerus -11.3841 -34.8922 85.9572
lradius 117.903
lwrist 0.31544
lhand 8.40228 36.0395
lfingers 7.12502
lthumb 33.6094 62.9092
rfemur -7.18282 14.5033 17.8068
rtibia 24.5942
rfoot -15.4474 -22.0995
rtoes -5.98778
lfemur -9.88609 -15.8741 -15.9803
ltibia 21.4892
lfoot -10.2847 5.98392
ltoes -13.787
2027
root 0.272193 16.0008 -0.441197 2.00897 8.24491 -0.500811
lowerback 12.5402 1.41958 1.37674
upperback 0.298619 2.02437 -0.890457
thorax -6.6441 0.932026 -2.0815
lowerneck -13.4809 9.89698 -2.77535
upperneck 14.4127 13.0329 6.0673
head 5.96221 6.67649 3.47137
rclavicle 2.21396e-014 -9.14409e-015
rhumerus -18.2732 20.8776 -84.0001
rradius 118.702
rwrist 22.1028
rhand 28.0358 7.87281
rfingers 7.12502
rthumb 51.9326 -12.2728
lclavicle 2.21396e-014 -9.14409e-015
lhumerus -11.2266 -34.8981 85.8601
lradius 117.895
lwrist 0.271791
lhand 8.40639 35.995
lfingers 7.12502
lthumb 33.6133 62.8637
rfemur -7.21444 14.395 17.9992
rtibia 24.8602
rfoot -15.6039 -22.2604
rtoes -6.15322
lfemur -10.028 -16.0281 -15.8207
ltibia 21.7109
lfoot -10.3164 5.86542
ltoes -13.8185
2028
root 0.270813 15.9939 -0.442616 1.95081 8.51123 -0.631062
lowerback 12.6956 1.46058 1.52444
upperback 0.314586 2.10543 -0.840313
thorax -6.7075 0.966789 -2.13149
lowerneck -13.3653 10.0208 -2.67644
upperneck 14.2653 13.1845 6.0425
head 5.8974 6.75405 3.44567
rclavicle 9.14409e-015 9.93923e-015
rhumerus -18.156 20.9074 -83.7712
rradius 118.747
rwrist 22.0068
rhand 28.2518 7.90073
rfingers 7.12502
rthumb 52.1285 -12.1282
lclavicle 9.14409e-015 9.93923e-015
lhumerus -11.16 -34.8871 85.8108
lradius 117.875
lwrist 0.181713
lhand 8.42353 35.9058
lfingers 7.12502
lthumb 33.6296 62.771
rfemur -7.21868 14.2955 18.1787
rtibia 25.0263
rfoot -15.7614 -22.3754
rtoes -6.16061
lfemur -10.2154 -16.2185 -15.6616
ltibia 22.0052
lfoot -10.3362 5.77588
ltoes -13.8436
2029
root 0.269674 15.9888 -0.439257 1.89905 8.79119 -0.706179
lowerback 12.7268 1.50145 1.60133
upperback 0.372308 2.17291 -0.814855
thorax -6.65865 0.998979 -2.15977
lowerneck -13.3236 10.1642 -2.51661
upperneck 14.1848 13.3529 6.00594
head 5.8707 6.84133 3.41686
rclavicle 5.49143e-015 7.95139e-016
rhumerus -18.0499 20.8511 -83.6109
rradius 118.769
rwrist 22.0005
rhand 28.4742 7.99143
rfingers 7.12502
rthumb 52.3301 -11.9161
lclavicle 5.49143e-015 7.95139e-016
lhumerus -11.0581 -34.8705 85.7148
lradius 117.854
lwrist 0.149245
lhand 8.37986 35.8841
lfingers 7.12502
lthumb 33.5881 62.7583
rfemur -7.1557 14.1612 18.3011
rtibia 25.127
rfoot -15.9622 -22.4851
rtoes -5.54585
lfemur -10.402 -16.3861 -15.5853
ltibia 22.3378
lfoot -10.3259 5.69984
ltoes -13.914
2030
root 0.268031 15.9842 -0.434335 1.88333 9.15161 -0.693953
lowerback 12.6593 1.50929 1.60565
upperback 0.458645 2.18226 -0.823012
thorax -6.528 1.00623 -2.16783
lowerneck -13.2136 10.3368 -2.26586
upperneck 14.0453 13.5589 5.86396
head 5.82695 6.94261 3.33894
rclavicle -2.90723e-015 5.96354e-016
rhumerus -17.9385 20.8071 -83.4819
rradius 118.783
rwrist 21.971
rhand 28.4383 7.97569
rfingers 7.12502
rthumb 52.2976 -11.9515
lclavicle -2.90723e-015 5.96354e-016
lhumerus -10.8724 -34.861 85.515
lradius 117.817
lwrist 0.165369
lhand 8.29336 35.7531
lfingers 7.12502
lthumb 33.5059 62.6452
rfemur -7.09753 13.8749 18.3147
rtibia 25.22
rfoot -16.097 -22.5383
rtoes -5.05922
lfemur -10.5935 -16.601 -15.5964
ltibia 22.616
lfoot -10.398 5.60388
ltoes -13.7861
2031
root 0.266922 15.9786 -0.432199 1.8833 9.5062 -0.709274
lowerback 12.6746 1.53856 1.71151
upperback 0.489256 2.23493 -0.848003
thorax -6.49656 1.02923 -2.26306
lowerneck -13.0609 10.4594 -2.10194
upperneck 13.9192 13.6977 5.83196
head 5.76958 7.01609 3.29967
rclavicle -1.69712e-014 -5.96354e-015
rhumerus -17.9306 20.7494 -83.3955
rradius 118.823
rwrist 21.9208
rhand 28.183 7.78936
rfingers 7.12502
rthumb 52.0662 -12.2769
lclavicle -1.69712e-014 -5.96354e-015
lhumerus -10.7706 -34.9893 85.3637
lradius 117.796
lwrist 0.159258
lhand 8.22675 35.3526
lfingers 7.12502
lthumb 33.4426 62.2584
rfemur -7.07665 13.6247 18.348
rtibia 25.3129
rfoot -16.1673 -22.5708
rtoes -5.54812
lfemur -10.7661 -16.8644 -15.563
ltibia 22.8288
lfoot -10.5721 5.50855
ltoes -13.8074
2032
root 0.266145 15.9757 -0.430348 1.88577 9.7902 -0.749587
lowerback 12.7404 1.59933 1.8075
upperback 0.499176 2.33124 -0.8372
thorax -6.51484 1.07334 -2.32515
lowerneck -13.0097 10.5413 -2.16282
upperneck 13.8468 13.7947 6.00732
head 5.71611 7.07558 3.3601
rclavicle 6.63444e-015 -2.18663e-015
rhumerus -17.9429 20.6142 -83.2432
rradius 118.876
rwrist 21.9817
rhand 28.055 7.98825
rfingers 7.12502
rthumb 51.95 -12.147
lclavicle 6.63444e-015 -2.18663e-015
lhumerus -10.6389 -35.1073 85.2854
lradius 117.754
lwrist 0.209556
lhand 8.37435 35.2751
lfingers 7.12502
lthumb 33.5829 62.1505
rfemur -7.09008 13.5085 18.4149
rtibia 25.4383
rfoot -16.3186 -22.6844
rtoes -5.90777
lfemur -10.9176 -17.0502 -15.5053
ltibia 22.9954
lfoot -10.6636 5.40618
ltoes -14.566
2033
root 0.264419 15.9734 -0.427888 1.90655 10.0592 -0.720326
lowerback 12.7512 1.63355 1.75119
upperback 0.555608 2.371 -0.799042
thorax -6.46276 1.09647 -2.25908
lowerneck -13.0481 10.6794 -2.23418
upperneck 13.8499 13.9717 6.17093
head 5.69744 7.17206 3.43311
rclavicle 1.27222e-014 -8.34896e-015
rhumerus -17.8049 20.4973 -83.065
rradius 118.947
rwrist 22.1078
rhand 28.2876 8.30511
rfingers 7.12502
rthumb 52.161 -11.7044
lclavicle 1.27222e-014 -8.34896e-015
lhumerus -10.4412 -35.0555 85.1792
lradius 117.76
lwrist 0.277275
lhand 8.56943 35.4265
lfingers 7.12502
lthumb 33.7683 62.2614
rfemur -7.11129 13.4044 18.4145
rtibia 25.5653
rfoot -16.3723 -22.8549
rtoes -6.19777
lfemur -11.0889 -17.1528 -15.5181
ltibia 23.1721
lfoot -10.6727 5.27789
ltoes -14.7491
2034
root 0.262829 15.971 -0.426015 1.92132 10.3239 -0.620052
lowerback 12.7315 1.64081 1.67795
upperback 0.655585 2.36781 -0.822374
thorax -6.3476 1.09965 -2.2384
lowerneck -13.1008 10.8558 -2.18463
upperneck 13.8553 14.1898 6.24862
head 5.69522 7.28718 3.46735
rclavicle 4.29872e-015 -1.37161e-014
rhumerus -17.4997 20.4632 -82.9654
rradius 118.962
rwrist 22.0941
rhand 28.5022 8.32004
rfingers 7.12502
rthumb 52.3554 -11.5721
lclavicle 4.29872e-015 -1.37161e-014
lhumerus -10.1682 -34.9989 84.9419
lradius 117.746
lwrist 0.271388
lhand 8.57546 35.5668
lfingers 7.12502
lthumb 33.774 62.4004
rfemur -7.13196 13.2301 18.3305
rtibia 25.7124
rfoot -16.49 -22.8952
rtoes -5.86401
lfemur -11.2187 -17.3034 -15.6072
ltibia 23.3368
lfoot -10.7044 5.17968
ltoes -14.6632
2035
root 0.260737 15.966 -0.423271 1.85978 10.5549 -0.722719
lowerback 12.7214 1.66289 1.8478
upperback 0.755076 2.42009 -0.83624
thorax -6.22623 1.12331 -2.35488
lowerneck -12.948 11.0003 -2.02554
upperneck 13.6652 14.3567 6.24317
head 5.61449 7.37634 3.43445
rclavicle 3.48122e-014 6.95746e-015
rhumerus -17.319 20.5367 -83.0034
rradius 118.933
rwrist 22.0258
rhand 28.187 8.05864
rfingers 7.12502
rthumb 52.0698 -12.0055
lclavicle 3.48122e-014 6.95746e-015
lhumerus -9.87644 -35.0897 84.6391
lradius 117.647
lwrist 0.293291
lhand 8.40435 35.7528
lfingers 7.12502
lthumb 33.6114 62.622
rfemur -7.12404 13.0374 18.473
rtibia 25.8593
rfoot -16.5666 -22.9356
rtoes -5.8504
lfemur -11.3042 -17.3914 -15.4858
ltibia 23.5061
lfoot -10.7763 5.04546
ltoes -15.0069
2036
root 0.259229 15.9607 -0.421603 1.84926 10.7278 -0.757422
lowerback 12.7051 1.73032 1.91407
upperback 0.82341 2.51854 -0.834923
thorax -6.13674 1.17203 -2.40539
lowerneck -12.7793 11.1036 -1.88247
upperneck 13.4735 14.4809 6.17103
head 5.53701 7.4383 3.38
rclavicle 1.17283e-014 7.95139e-016
rhumerus -17.3323 20.6561 -83.0278
rradius 118.977
rwrist 21.9942
rhand 27.7613 7.55919
rfingers 7.12502
rthumb 51.6835 -12.7326
lclavicle 1.17283e-014 7.95139e-016
lhumerus -9.6588 -35.2341 84.4471
lradius 117.587
lwrist 0.271203
lhand 8.32912 35.8899
lfingers 7.12502
lthumb 33.5399 62.7746
rfemur -7.15652 12.907 18.526
rtibia 25.9941
rfoot -16.6905 -22.953
rtoes -5.9089
lfemur -11.4386 -17.4239 -15.4352
ltibia 23.6926
lfoot -10.8213 4.91655
ltoes -15.5394
